<?xml version="1.0" encoding="UTF-8" standalone="no"?>
<!-- Created with Inkscape (http://www.inkscape.org/) -->

<svg
   xmlns:dc="http://purl.org/dc/elements/1.1/"
   xmlns:cc="http://creativecommons.org/ns#"
   xmlns:rdf="http://www.w3.org/1999/02/22-rdf-syntax-ns#"
   xmlns:svg="http://www.w3.org/2000/svg"
   xmlns="http://www.w3.org/2000/svg"
   xmlns:sodipodi="http://sodipodi.sourceforge.net/DTD/sodipodi-0.dtd"
   xmlns:inkscape="http://www.inkscape.org/namespaces/inkscape"
   viewBox="0 0 30.427282 30.463146"
   version="1.1"
   id="svg8104"
   inkscape:version="0.92.0 r15299"
   sodipodi:docname="portland general electric.svg">
  <defs
     id="defs8098" />
  <sodipodi:namedview
     id="base"
     pagecolor="#ffffff"
     bordercolor="#666666"
     borderopacity="1.0"
     inkscape:pageopacity="0.0"
     inkscape:pageshadow="2"
     inkscape:zoom="4.6698559"
     inkscape:cx="57.000377"
     inkscape:cy="57.068142"
     inkscape:document-units="mm"
     inkscape:current-layer="layer1"
     showgrid="false"
     fit-margin-top="0"
     fit-margin-left="0"
     fit-margin-right="0"
     fit-margin-bottom="0"
     units="px"
     inkscape:window-width="1280"
     inkscape:window-height="744"
     inkscape:window-x="-4"
     inkscape:window-y="-4"
     inkscape:window-maximized="1" />
  <metadata
     id="metadata8101">
    <rdf:RDF>
      <cc:Work
         rdf:about="">
        <dc:format>image/svg+xml</dc:format>
        <dc:type
           rdf:resource="http://purl.org/dc/dcmitype/StillImage" />
        <dc:title></dc:title>
      </cc:Work>
    </rdf:RDF>
  </metadata>
  <g
     inkscape:label="Layer 1"
     inkscape:groupmode="layer"
     id="layer1"
     transform="translate(-38.59127,-209.82066)">
    <g
       transform="translate(-199.59477,-129.96949)"
       id="g8069"
       style="fill:#3d5265;fill-opacity:1">
      <path
         d="m 266.04147,351.72545 c 0,0 -9.10555,-8.96267 -11.0684,-10.92588 -1.96356,-1.96321 -3.45334,-0.0176 -3.45334,-0.0176"
         style="fill:#3d5265;fill-opacity:1;fill-rule:nonzero;stroke:none;stroke-width:0.35277778"
         id="path7957"
         inkscape:connector-curvature="0" />
      <path
         d="m 250.12114,342.1269 c 0,0 -8.96232,9.1059 -10.92553,11.0684 -1.96356,1.96392 -0.0176,3.4537 -0.0176,3.4537"
         style="fill:#3d5265;fill-opacity:1;fill-rule:nonzero;stroke:none;stroke-width:0.35277778"
         id="path7961"
         inkscape:connector-curvature="0" />
      <path
         d="m 240.70261,358.31851 c 0,0 9.10555,8.96197 11.0684,10.92553 1.96356,1.96285 3.4537,0.0176 3.4537,0.0176"
         style="fill:#3d5265;fill-opacity:1;fill-rule:nonzero;stroke:none;stroke-width:0.35277778"
         id="path7965"
         inkscape:connector-curvature="0" />
      <path
         d="m 256.67822,367.76428 c 0,0 8.96232,-9.10555 10.92553,-11.06876 1.96356,-1.9632 0.0176,-3.45334 0.0176,-3.45334"
         style="fill:#3d5265;fill-opacity:1;fill-rule:nonzero;stroke:none;stroke-width:0.35277778"
         id="path7969"
         inkscape:connector-curvature="0" />
      <path
         d="m 244.70099,351.99349 h 3.02789 c 1.35996,0 2.10362,0.91581 2.10362,2.01295 0,1.08797 -0.74366,2.00342 -2.10362,2.00342 h -1.46861 v 2.03095 h -1.55928 z m 2.81975,1.35996 h -1.26047 v 1.29646 h 1.26047 c 0.41699,0 0.72496,-0.23566 0.72496,-0.64347 0,-0.41734 -0.30797,-0.65299 -0.72496,-0.65299"
         style="fill:#3d5265;fill-opacity:1;fill-rule:nonzero;stroke:none;stroke-width:0.35277778"
         id="path7973"
         inkscape:connector-curvature="0" />
      <path
         d="m 253.49648,351.89376 c 1.35114,0 2.16711,0.71649 2.5841,1.46897 l -1.30563,0.6798 c -0.22649,-0.39899 -0.68898,-0.77047 -1.27847,-0.77047 -0.98848,0 -1.68663,0.7613 -1.68663,1.74978 0,0.98813 0.69815,1.74978 1.68663,1.74978 0.44415,0 0.89747,-0.18133 1.11513,-0.36266 v -0.47166 h -1.35996 v -1.36878 h 2.91924 v 2.40242 c -0.65264,0.71614 -1.53212,1.17863 -2.67441,1.17863 -1.80446,0 -3.27307,-1.2058 -3.27307,-3.12773 0,-1.92229 1.46861,-3.12808 3.27307,-3.12808"
         style="fill:#3d5265;fill-opacity:1;fill-rule:nonzero;stroke:none;stroke-width:0.35277778"
         id="path7977"
         inkscape:connector-curvature="0" />
      <path
         d="m 257.0885,351.99349 h 4.43336 v 1.35996 h -2.87408 v 0.94297 h 2.81058 v 1.35996 h -2.81058 v 1.02447 h 2.87408 v 1.35996 h -4.43336 z"
         style="fill:#3d5265;fill-opacity:1;fill-rule:nonzero;stroke:none;stroke-width:0.35277778"
         id="path7981"
         inkscape:connector-curvature="0" />
    </g>
  </g>
</svg>
